PsfTest-Regular.ufo
<glyph name="DollarSgn" format="2">
  <advance width="1200"/>
  <unicode hex="0024"/>
  <outline>
    <contour>
      <point x="553" y="1600" type="line"/>
      <point x="553" y="-220" type="line"/>
      <point x="683" y="-220" type="line"/>
      <point x="683" y="1600" type="line"/>
    </contour>
    <contour>
      <point x="986" y="1306" type="line"/>
      <point x="866" y="1364"/>
      <point x="764" y="1389"/>
      <point x="623" y="1389" type="curve" smooth="yes"/>
      <point x="317" y="1389"/>
      <point x="190" y="1173"/>
      <point x="190" y="1017" type="curve" smooth="yes"/>
      <point x="190" y="860"/>
      <point x="253" y="739"/>
      <point x="540" y="653" type="curve" smooth="yes"/>
      <point x="827" y="567"/>
      <point x="871" y="492"/>
      <point x="871" y="396" type="curve" smooth="yes"/>
      <point x="871" y="247"/>
      <point x="734" y="161"/>
      <point x="586" y="161" type="curve" smooth="yes"/>
      <point x="450" y="161"/>
      <point x="316" y="207"/>
      <point x="195" y="313" type="curve"/>
      <point x="153" y="124" type="line"/>
      <point x="247" y="52"/>
      <point x="408" y="0"/>
      <point x="586" y="0" type="curve" smooth="yes"/>
      <point x="837" y="0"/>
      <point x="1046" y="167"/>
      <point x="1046" y="414" type="curve" smooth="yes"/>
      <point x="1046" y="613"/>
      <point x="912" y="725"/>
      <point x="669" y="796" type="curve" smooth="yes"/>
      <point x="406" y="873"/>
      <point x="365" y="929"/>
      <point x="365" y="1030" type="curve" smooth="yes"/>
      <point x="365" y="1132"/>
      <point x="466" y="1228"/>
      <point x="613" y="1228" type="curve" smooth="yes"/>
      <point x="731" y="1228"/>
      <point x="818" y="1200"/>
      <point x="949" y="1127" type="curve"/>
    </contour>
  </outline>
</glyph>
<glyph name="Comma" format="2">
  <advance width="650"/>
  <unicode hex="002C"/>
  <outline>
    <contour>
      <point x="185" y="50" type="line"/>
      <point x="325" y="50" type="line"/>
      <point x="325" y="-51"/>
      <point x="248" y="-172"/>
      <point x="190" y="-230" type="curve"/>
      <point x="290" y="-270" type="line"/>
      <point x="407" y="-160"/>
      <point x="465" y="-37"/>
      <point x="465" y="85" type="curve" smooth="yes"/>
      <point x="465" y="186"/>
      <point x="400" y="250"/>
      <point x="320" y="250" type="curve" smooth="yes"/>
      <point x="263" y="250"/>
      <point x="198" y="213"/>
      <point x="185" y="150" type="curve"/>
    </contour>
  </outline>
</glyph>
<glyph name="Solidus" format="2">
  <advance width="1000"/>
  <unicode hex="002F"/>
  <outline>
    <contour>
      <point x="840" y="1600" type="line"/>
      <point x="10" y="-245" type="line"/>
      <point x="160" y="-245" type="line"/>
      <point x="990" y="1600" type="line"/>
    </contour>
  </outline>
</glyph>
<glyph name="DigitOne" format="2">
  <advance width="1200"/>
  <unicode hex="0031"/>
  <anchor x="600" y="-100" name="L"/>
  <anchor x="600" y="1530" name="U"/>
  <outline>
    <contour>
      <point x="535" y="170" type="line"/>
      <point x="220" y="170" type="line"/>
      <point x="220" y="0" type="line"/>
      <point x="1040" y="0" type="line"/>
      <point x="1040" y="170" type="line"/>
      <point x="725" y="170" type="line"/>
      <point x="725" y="1480" type="line"/>
      <point x="555" y="1480" type="line"/>
      <point x="210" y="1268" type="line"/>
      <point x="235" y="1088" type="line"/>
      <point x="535" y="1260" type="line"/>
    </contour>
  </outline>
</glyph>
<glyph name="DigitThree" format="2">
  <advance width="1200"/>
  <unicode hex="0033"/>
  <anchor x="600" y="-100" name="L"/>
  <anchor x="600" y="1530" name="U"/>
  <outline>
    <contour>
      <point x="410" y="870" type="line"/>
      <point x="410" y="700" type="line"/>
      <point x="480" y="700" type="line"/>
      <point x="716" y="700"/>
      <point x="895" y="588"/>
      <point x="895" y="425" type="curve" smooth="yes"/>
      <point x="895" y="241"/>
      <point x="718" y="150"/>
      <point x="565" y="150" type="curve" smooth="yes"/>
      <point x="385" y="150"/>
      <point x="244" y="232"/>
      <point x="135" y="355" type="curve"/>
      <point x="110" y="140" type="line"/>
      <point x="215" y="42"/>
      <point x="368" y="-25"/>
      <point x="545" y="-25" type="curve" smooth="yes"/>
      <point x="834" y="-25"/>
      <point x="1090" y="170"/>
      <point x="1090" y="405" type="curve" smooth="yes"/>
      <point x="1090" y="672"/>
      <point x="862" y="776"/>
      <point x="720" y="800" type="curve"/>
      <point x="862" y="829"/>
      <point x="1040" y="957"/>
      <point x="1040" y="1140" type="curve" smooth="yes"/>
      <point x="1040" y="1354"/>
      <point x="828" y="1485"/>
      <point x="580" y="1485" type="curve"/>
      <point x="413" y="1485"/>
      <point x="260" y="1416"/>
      <point x="180" y="1325" type="curve"/>
      <point x="215" y="1155" type="line"/>
      <point x="328" y="1271"/>
      <point x="436" y="1310"/>
      <point x="590" y="1310" type="curve" smooth="yes"/>
      <point x="711" y="1310"/>
      <point x="850" y="1250"/>
      <point x="850" y="1115" type="curve" smooth="yes"/>
      <point x="850" y="991"/>
      <point x="679" y="870"/>
      <point x="480" y="870" type="curve"/>
    </contour>
  </outline>
</glyph>
<glyph name="DigitSeven" format="2">
  <advance width="1200"/>
  <unicode hex="0037"/>
  <anchor x="600" y="-100" name="L"/>
  <anchor x="600" y="1530" name="U"/>
  <outline>
    <contour>
      <point x="460" y="0" type="line"/>
      <point x="589" y="459"/>
      <point x="794" y="895"/>
      <point x="1090" y="1300" type="curve"/>
      <point x="1090" y="1460" type="line"/>
      <point x="100" y="1460" type="line"/>
      <point x="100" y="1275" type="line"/>
      <point x="176" y="1291"/>
      <point x="292" y="1295"/>
      <point x="480" y="1295" type="curve" smooth="yes"/>
      <point x="870" y="1295" type="line"/>
      <point x="612" y="912"/>
      <point x="439" y="566"/>
      <point x="275" y="0" type="curve"/>
    </contour>
  </outline>
</glyph>
<glyph name="Semicolon" format="2">
  <advance width="650"/>
  <unicode hex="003B"/>
  <outline>
    <contour>
      <point x="185" y="790" type="curve" smooth="yes"/>
      <point x="185" y="716"/>
      <point x="246" y="655"/>
      <point x="320" y="655" type="curve" smooth="yes"/>
      <point x="394" y="655"/>
      <point x="455" y="716"/>
      <point x="455" y="790" type="curve" smooth="yes"/>
      <point x="455" y="864"/>
      <point x="394" y="925"/>
      <point x="320" y="925" type="curve" smooth="yes"/>
      <point x="246" y="925"/>
      <point x="185" y="864"/>
    </contour>
    <contour>
      <point x="185" y="50" type="line"/>
      <point x="325" y="50" type="line"/>
      <point x="325" y="-51"/>
      <point x="248" y="-172"/>
      <point x="190" y="-230" type="curve"/>
      <point x="290" y="-270" type="line"/>
      <point x="407" y="-160"/>
      <point x="465" y="-37"/>
      <point x="465" y="85" type="curve" smooth="yes"/>
      <point x="465" y="186"/>
      <point x="400" y="250"/>
      <point x="320" y="250" type="curve" smooth="yes"/>
      <point x="263" y="250"/>
      <point x="198" y="213"/>
      <point x="185" y="150" type="curve"/>
    </contour>
  </outline>
</glyph>
<glyph name="GTSgn" format="2">
  <advance width="1200"/>
  <unicode hex="003E"/>
  <outline>
    <contour>
      <point x="120" y="1035" type="line"/>
      <point x="910" y="730" type="line"/>
      <point x="120" y="425" type="line"/>
      <point x="120" y="245" type="line"/>
      <point x="1100" y="645" type="line"/>
      <point x="1100" y="815" type="line"/>
      <point x="120" y="1215" type="line"/>
    </contour>
  </outline>
</glyph>
<glyph name="QstnMrk" format="2">
  <advance width="1050"/>
  <unicode hex="003F"/>
  <outline>
    <contour>
      <point x="460" y="1540" type="curve" smooth="yes"/>
      <point x="335" y="1540"/>
      <point x="206" y="1493"/>
      <point x="140" y="1430" type="curve"/>
      <point x="185" y="1251" type="line"/>
      <point x="261" y="1330"/>
      <point x="352" y="1365"/>
      <point x="432" y="1365" type="curve" smooth="yes"/>
      <point x="579" y="1365"/>
      <point x="625" y="1289"/>
      <point x="625" y="1230" type="curve" smooth="yes"/>
      <point x="625" y="1159"/>
      <point x="572" y="1092"/>
      <point x="485" y="980" type="curve" smooth="yes"/>
      <point x="397" y="867"/>
      <point x="355" y="730"/>
      <point x="355" y="440" type="curve"/>
      <point x="540" y="440" type="line"/>
      <point x="540" y="721"/>
      <point x="561" y="806"/>
      <point x="665" y="927" type="curve" smooth="yes"/>
      <point x="753" y="1028"/>
      <point x="830" y="1117"/>
      <point x="830" y="1240" type="curve" smooth="yes"/>
      <point x="830" y="1422"/>
      <point x="697" y="1540"/>
    </contour>
    <contour>
      <point x="315" y="110" type="curve" smooth="yes"/>
      <point x="315" y="36"/>
      <point x="376" y="-25"/>
      <point x="450" y="-25" type="curve" smooth="yes"/>
      <point x="524" y="-25"/>
      <point x="585" y="36"/>
      <point x="585" y="110" type="curve" smooth="yes"/>
      <point x="585" y="184"/>
      <point x="524" y="245"/>
      <point x="450" y="245" type="curve" smooth="yes"/>
      <point x="376" y="245"/>
      <point x="315" y="184"/>
    </contour>
  </outline>
</glyph>
<glyph name="LtnCapA" format="2">
  <advance width="1395"/>
  <unicode hex="0041"/>
  <anchor x="707" y="0" name="H"/>
  <anchor x="687" y="-100" name="L"/>
  <anchor x="1450" y="0" name="O"/>
  <anchor x="687" y="1530" name="U"/>
  <outline>
    <contour>
      <point x="245" y="0" type="line"/>
      <point x="379" y="385" type="line"/>
      <point x="994" y="385" type="line"/>
      <point x="1130" y="0" type="line"/>
      <point x="1335" y="0" type="line"/>
      <point x="1300" y="80"/>
      <point x="1262" y="169"/>
      <point x="1195" y="355" type="curve" smooth="yes"/>
      <point x="795" y="1460" type="line"/>
      <point x="580" y="1460" type="line"/>
      <point x="180" y="355" type="line" smooth="yes"/>
      <point x="112" y="168"/>
      <point x="76" y="81"/>
      <point x="40" y="0" type="curve"/>
    </contour>
    <contour>
      <point x="940" y="540" type="line"/>
      <point x="433" y="540" type="line"/>
      <point x="685" y="1265" type="line"/>
    </contour>
  </outline>
</glyph>
<glyph name="LtnCapE" format="2">
  <advance width="1160"/>
  <unicode hex="0045"/>
  <anchor x="600" y="0" name="H"/>
  <anchor x="600" y="-100" name="L"/>
  <anchor x="917" y="0" name="O"/>
  <anchor x="1160" y="1200" name="R"/>
  <anchor x="600" y="1530" name="U"/>
  <outline>
    <contour>
      <point x="365" y="845" type="line"/>
      <point x="365" y="1295" type="line"/>
      <point x="1010" y="1295" type="line"/>
      <point x="1010" y="1460" type="line"/>
      <point x="160" y="1460" type="line"/>
      <point x="175" y="1380"/>
      <point x="175" y="1222"/>
      <point x="175" y="1025" type="curve" smooth="yes"/>
      <point x="175" y="435" type="line" smooth="yes"/>
      <point x="175" y="238"/>
      <point x="175" y="80"/>
      <point x="160" y="0" type="curve"/>
      <point x="1040" y="0" type="line"/>
      <point x="1040" y="180" type="line"/>
      <point x="960" y="166"/>
      <point x="826" y="165"/>
      <point x="629" y="165" type="curve" smooth="yes"/>
      <point x="365" y="165" type="line"/>
      <point x="365" y="685" type="line"/>
      <point x="935" y="685" type="line"/>
      <point x="935" y="845" type="line"/>
    </contour>
  </outline>
</glyph>
<glyph name="LtnCapI" format="2">
  <advance width="975"/>
  <unicode hex="0049"/>
  <anchor x="477" y="0" name="H"/>
  <anchor x="477" y="-100" name="L"/>
  <anchor x="673" y="0" name="O"/>
  <anchor x="975" y="1200" name="R"/>
  <anchor x="477" y="1530" name="U"/>
  <outline>
    <contour>
      <point x="140" y="1460" type="line"/>
      <point x="140" y="1315" type="line"/>
      <point x="380" y="1315" type="line"/>
      <point x="380" y="145" type="line"/>
      <point x="140" y="145" type="line"/>
      <point x="140" y="0" type="line"/>
      <point x="815" y="0" type="line"/>
      <point x="815" y="145" type="line"/>
      <point x="570" y="145" type="line"/>
      <point x="570" y="1315" type="line"/>
      <point x="815" y="1315" type="line"/>
      <point x="815" y="1460" type="line"/>
    </contour>
  </outline>
</glyph>
<glyph name="LtnCapJ" format="2">
  <advance width="965"/>
  <unicode hex="004A"/>
  <anchor x="410" y="-100" name="L"/>
  <anchor x="675" y="1530" name="U"/>
  <outline>
    <contour>
      <point x="575" y="1460" type="line"/>
      <point x="588" y="1354"/>
      <point x="590" y="1175"/>
      <point x="590" y="980" type="curve"/>
      <point x="590" y="485" type="line" smooth="yes"/>
      <point x="590" y="256"/>
      <point x="487" y="155"/>
      <point x="340" y="155" type="curve" smooth="yes"/>
      <point x="248" y="155"/>
      <point x="147" y="198"/>
      <point x="80" y="275" type="curve"/>
      <point x="35" y="90" type="line"/>
      <point x="106" y="9"/>
      <point x="250" y="-25"/>
      <point x="345" y="-25" type="curve" smooth="yes"/>
      <point x="602" y="-25"/>
      <point x="780" y="119"/>
      <point x="780" y="535" type="curve" smooth="yes"/>
      <point x="780" y="1460" type="line"/>
    </contour>
  </outline>
</glyph>
<glyph name="LtnCapK" format="2">
  <advance width="1310"/>
  <unicode hex="004B"/>
  <anchor x="270" y="0" name="H"/>
  <anchor x="695" y="-100" name="L"/>
  <anchor x="650" y="1530" name="U"/>
  <outline>
    <contour>
      <point x="925" y="1460" type="line"/>
      <point x="295" y="703" type="line"/>
      <point x="425" y="745" type="line"/>
      <point x="530" y="740" type="line"/>
      <point x="1165" y="1460" type="line"/>
    </contour>
    <contour>
      <point x="350" y="735" type="line"/>
      <point x="985" y="0" type="line"/>
      <point x="1230" y="0" type="line"/>
      <point x="485" y="860" type="line"/>
    </contour>
    <contour>
      <point x="365" y="1460" type="line"/>
      <point x="160" y="1460" type="line"/>
      <point x="175" y="1380"/>
      <point x="175" y="1222"/>
      <point x="175" y="1025" type="curve" smooth="yes"/>
      <point x="175" y="435" type="line" smooth="yes"/>
      <point x="175" y="238"/>
      <point x="175" y="80"/>
      <point x="160" y="0" type="curve"/>
      <point x="365" y="0" type="line"/>
    </contour>
  </outline>
</glyph>
<glyph name="LtnCapL" format="2">
  <advance width="1080"/>
  <unicode hex="004C"/>
  <anchor x="592" y="0" name="H"/>
  <anchor x="592" y="-100" name="L"/>
  <anchor x="540" y="1200" name="R"/>
  <anchor x="592" y="1530" name="U"/>
  <outline>
    <contour>
      <point x="365" y="165" type="line"/>
      <point x="365" y="1460" type="line"/>
      <point x="160" y="1460" type="line"/>
      <point x="175" y="1380"/>
      <point x="175" y="1222"/>
      <point x="175" y="1025" type="curve" smooth="yes"/>
      <point x="175" y="435" type="line" smooth="yes"/>
      <point x="175" y="238"/>
      <point x="175" y="80"/>
      <point x="160" y="0" type="curve"/>
      <point x="1025" y="0" type="line"/>
      <point x="1025" y="180" type="line"/>
      <point x="945" y="166"/>
      <point x="786" y="165"/>
      <point x="589" y="165" type="curve" smooth="yes"/>
    </contour>
  </outline>
</glyph>
<glyph name="LtnCapN" format="2">
  <advance width="1500"/>
  <unicode hex="004E"/>
  <anchor x="1230" y="0" name="H"/>
  <anchor x="737" y="-100" name="L"/>
  <anchor x="737" y="1530" name="U"/>
  <outline>
    <contour>
      <point x="200" y="1355" type="line"/>
      <point x="1135" y="0" type="line"/>
      <point x="1275" y="100" type="line"/>
      <point x="340" y="1460" type="line"/>
    </contour>
    <contour>
      <point x="1135" y="0" type="line"/>
      <point x="1300" y="0" type="line"/>
      <point x="1300" y="1025" type="line" smooth="yes"/>
      <point x="1300" y="1222"/>
      <point x="1301" y="1380"/>
      <point x="1315" y="1460" type="curve"/>
      <point x="1135" y="1460" type="line"/>
    </contour>
    <contour>
      <point x="340" y="1460" type="line"/>
      <point x="160" y="1460" type="line"/>
      <point x="175" y="1380"/>
      <point x="175" y="1222"/>
      <point x="175" y="1025" type="curve" smooth="yes"/>
      <point x="175" y="435" type="line" smooth="yes"/>
      <point x="175" y="238"/>
      <point x="175" y="80"/>
      <point x="160" y="0" type="curve"/>
      <point x="340" y="0" type="line"/>
    </contour>
  </outline>
</glyph>
<glyph name="LtnCapP" format="2">
  <advance width="1195"/>
  <unicode hex="0050"/>
  <anchor x="637" y="-100" name="L"/>
  <anchor x="637" y="1530" name="U"/>
  <outline>
    <contour>
      <point x="365" y="565" type="line"/>
      <point x="430" y="558"/>
      <point x="512" y="555"/>
      <point x="585" y="555" type="curve" smooth="yes"/>
      <point x="914" y="555"/>
      <point x="1115" y="736"/>
      <point x="1115" y="1030" type="curve" smooth="yes"/>
      <point x="1115" y="1322"/>
      <point x="908" y="1470"/>
      <point x="585" y="1470" type="curve" smooth="yes"/>
      <point x="372" y="1470"/>
      <point x="160" y="1460"/>
      <point x="160" y="1460" type="curve"/>
      <point x="175" y="1380"/>
      <point x="175" y="1196"/>
      <point x="175" y="1000" type="curve"/>
      <point x="175" y="435" type="line" smooth="yes"/>
      <point x="175" y="238"/>
      <point x="175" y="80"/>
      <point x="160" y="0" type="curve"/>
      <point x="380" y="0" type="line"/>
      <point x="366" y="78"/>
      <point x="365" y="237"/>
      <point x="365" y="435" type="curve" smooth="yes"/>
    </contour>
    <contour>
      <point x="365" y="1305" type="line"/>
      <point x="433" y="1308"/>
      <point x="481" y="1310"/>
      <point x="575" y="1310" type="curve" smooth="yes"/>
      <point x="841" y="1310"/>
      <point x="925" y="1170"/>
      <point x="925" y="1010" type="curve" smooth="yes"/>
      <point x="925" y="849"/>
      <point x="850" y="710"/>
      <point x="570" y="710" type="curve" smooth="yes"/>
      <point x="495" y="710"/>
      <point x="428" y="712"/>
      <point x="365" y="720" type="curve"/>
    </contour>
  </outline>
</glyph>
<glyph name="LtnCapS" format="2">
  <advance width="1175"/>
  <unicode hex="0053"/>
  <anchor x="580" y="0" name="H"/>
  <anchor x="580" y="-100" name="L"/>
  <anchor x="580" y="1530" name="U"/>
  <outline>
    <contour>
      <point x="1000" y="1395" type="line"/>
      <point x="870" y="1458"/>
      <point x="759" y="1485"/>
      <point x="605" y="1485" type="curve" smooth="yes"/>
      <point x="273" y="1485"/>
      <point x="135" y="1250"/>
      <point x="135" y="1080" type="curve" smooth="yes"/>
      <point x="135" y="910"/>
      <point x="203" y="778"/>
      <point x="515" y="685" type="curve" smooth="yes"/>
      <point x="827" y="591"/>
      <point x="875" y="510"/>
      <point x="875" y="405" type="curve" smooth="yes"/>
      <point x="875" y="243"/>
      <point x="726" y="150"/>
      <point x="565" y="150" type="curve" smooth="yes"/>
      <point x="417" y="150"/>
      <point x="272" y="200"/>
      <point x="140" y="315" type="curve"/>
      <point x="95" y="110" type="line"/>
      <point x="197" y="31"/>
      <point x="372" y="-25"/>
      <point x="565" y="-25" type="curve" smooth="yes"/>
      <point x="838" y="-25"/>
      <point x="1065" y="157"/>
      <point x="1065" y="425" type="curve" smooth="yes"/>
      <point x="1065" y="641"/>
      <point x="920" y="762"/>
      <point x="655" y="840" type="curve" smooth="yes"/>
      <point x="370" y="923"/>
      <point x="325" y="985"/>
      <point x="325" y="1095" type="curve" smooth="yes"/>
      <point x="325" y="1205"/>
      <point x="435" y="1310"/>
      <point x="595" y="1310" type="curve" smooth="yes"/>
      <point x="723" y="1310"/>
      <point x="817" y="1279"/>
      <point x="960" y="1200" type="curve"/>
    </contour>
  </outline>
</glyph>
<glyph name="LtnCapV" format="2">
  <advance width="1365"/>
  <unicode hex="0056"/>
  <anchor x="680" y="0" name="H"/>
  <anchor x="672" y="-100" name="L"/>
  <anchor x="880" y="0" name="O"/>
  <anchor x="672" y="1530" name="U"/>
  <outline>
    <contour>
      <point x="1095" y="1460" type="line"/>
      <point x="672" y="195" type="line"/>
      <point x="250" y="1460" type="line"/>
      <point x="35" y="1460" type="line"/>
      <point x="68" y="1378"/>
      <point x="101" y="1288"/>
      <point x="170" y="1095" type="curve" smooth="yes"/>
      <point x="560" y="0" type="line"/>
      <point x="785" y="0" type="line"/>
      <point x="1170" y="1095" type="line" smooth="yes"/>
      <point x="1238" y="1289"/>
      <point x="1274" y="1378"/>
      <point x="1310" y="1460" type="curve"/>
    </contour>
  </outline>
</glyph>
<glyph name="LtnCapW" format="2">
  <advance width="2080"/>
  <unicode hex="0057"/>
  <anchor x="1027" y="-100" name="L"/>
  <anchor x="1027" y="1530" name="U"/>
  <outline>
    <contour>
      <point x="1480" y="0" type="line"/>
      <point x="1595" y="0" type="line"/>
      <point x="1900" y="1095" type="line" smooth="yes"/>
      <point x="1954" y="1289"/>
      <point x="1983" y="1378"/>
      <point x="2015" y="1460" type="curve"/>
      <point x="1795" y="1460" type="line"/>
      <point x="1470" y="130" type="line"/>
    </contour>
    <contour>
      <point x="1120" y="1460" type="line"/>
      <point x="935" y="1460" type="line"/>
      <point x="990" y="1305" type="line"/>
      <point x="1370" y="0" type="line"/>
      <point x="1480" y="0" type="line"/>
      <point x="1500" y="130" type="line"/>
    </contour>
    <contour>
      <point x="580" y="0" type="line"/>
      <point x="685" y="0" type="line"/>
      <point x="1065" y="1305" type="line"/>
      <point x="1120" y="1460" type="line"/>
      <point x="935" y="1460" type="line"/>
      <point x="560" y="130" type="line"/>
    </contour>
    <contour>
      <point x="260" y="1460" type="line"/>
      <point x="40" y="1460" type="line"/>
      <point x="71" y="1381"/>
      <point x="102" y="1286"/>
      <point x="155" y="1095" type="curve" smooth="yes"/>
      <point x="460" y="0" type="line"/>
      <point x="580" y="0" type="line"/>
      <point x="590" y="130" type="line"/>
    </contour>
  </outline>
</glyph>
<glyph name="ReverseSolidus" format="2">
  <advance width="1000"/>
  <unicode hex="005C"/>
  <outline>
    <contour>
      <point x="990" y="-245" type="line"/>
      <point x="160" y="1600" type="line"/>
      <point x="10" y="1600" type="line"/>
      <point x="840" y="-245" type="line"/>
    </contour>
  </outline>
</glyph>
<glyph name="LtnSmF" format="2">
  <advance width="750"/>
  <unicode hex="0066"/>
  <anchor x="370" y="0" name="H"/>
  <anchor x="335" y="-100" name="L"/>
  <anchor x="560" y="1635" name="U"/>
  <outline>
    <contour>
      <point x="40" y="850" type="line"/>
      <point x="240" y="850" type="line"/>
      <point x="240" y="0" type="line"/>
      <point x="455" y="0" type="line"/>
      <point x="433" y="105"/>
      <point x="425" y="300"/>
      <point x="425" y="494" type="curve" smooth="yes"/>
      <point x="425" y="850" type="line"/>
      <point x="695" y="850" type="line"/>
      <point x="695" y="995" type="line"/>
      <point x="425" y="995" type="line"/>
      <point x="425" y="1210" type="line" smooth="yes"/>
      <point x="425" y="1381"/>
      <point x="481" y="1450"/>
      <point x="585" y="1450" type="curve" smooth="yes"/>
      <point x="643" y="1450"/>
      <point x="710" y="1427"/>
      <point x="760" y="1390" type="curve"/>
      <point x="805" y="1550" type="line"/>
      <point x="743" y="1594"/>
      <point x="663" y="1620"/>
      <point x="585" y="1620" type="curve" smooth="yes"/>
      <point x="369" y="1620"/>
      <point x="240" y="1470"/>
      <point x="240" y="1170" type="curve" smooth="yes"/>
      <point x="240" y="995" type="line"/>
      <point x="40" y="995" type="line"/>
    </contour>
  </outline>
</glyph>
<glyph name="LtnSmJ" format="2">
  <advance width="595"/>
  <unicode hex="006A"/>
  <anchor x="125" y="-500" name="L"/>
  <anchor x="313" y="1100" name="U"/>
  <outline>
    <contour>
      <point x="405" y="1020" type="line"/>
      <point x="205" y="1020" type="line"/>
      <point x="218" y="915"/>
      <point x="220" y="725"/>
      <point x="220" y="530" type="curve"/>
      <point x="220" y="-25" type="line"/>
      <point x="220" y="-222"/>
      <point x="147" y="-300"/>
      <point x="40" y="-300" type="curve" smooth="yes"/>
      <point x="-16" y="-300"/>
      <point x="-111" y="-273"/>
      <point x="-155" y="-240" type="curve"/>
      <point x="-190" y="-405" type="line"/>
      <point x="-130" y="-446"/>
      <point x="-26" y="-470"/>
      <point x="30" y="-470" type="curve" smooth="yes"/>
      <point x="258" y="-470"/>
      <point x="405" y="-348"/>
      <point x="405" y="25" type="curve" smooth="yes"/>
    </contour>
    <contour>
      <point x="185" y="1345" type="curve" smooth="yes"/>
      <point x="185" y="1271"/>
      <point x="236" y="1210"/>
      <point x="310" y="1210" type="curve" smooth="yes"/>
      <point x="385" y="1210"/>
      <point x="440" y="1271"/>
      <point x="440" y="1345" type="curve" smooth="yes"/>
      <point x="440" y="1419"/>
      <point x="385" y="1480"/>
      <point x="310" y="1480" type="curve" smooth="yes"/>
      <point x="236" y="1480"/>
      <point x="185" y="1419"/>
    </contour>
  </outline>
</glyph>
<glyph name="LtnSmM" format="2">
  <advance width="1685"/>
  <unicode hex="006D"/>
  <anchor x="1450" y="0" name="H"/>
  <anchor x="865" y="-100" name="L"/>
  <anchor x="865" y="1100" name="U"/>
  <outline>
    <contour>
      <point x="945" y="660" type="line"/>
      <point x="1003" y="785"/>
      <point x="1102" y="865"/>
      <point x="1200" y="865" type="curve" smooth="yes"/>
      <point x="1312" y="865"/>
      <point x="1345" y="808"/>
      <point x="1345" y="550" type="curve" smooth="yes"/>
      <point x="1345" y="0" type="line"/>
      <point x="1530" y="0" type="line"/>
      <point x="1530" y="660" type="line" smooth="yes"/>
      <point x="1530" y="907"/>
      <point x="1463" y="1040"/>
      <point x="1260" y="1040" type="curve" smooth="yes"/>
      <point x="1155" y="1040"/>
      <point x="1046" y="1007"/>
      <point x="921" y="872" type="curve"/>
      <point x="888" y="960"/>
      <point x="806" y="1040"/>
      <point x="675" y="1040" type="curve" smooth="yes"/>
      <point x="560" y="1040"/>
      <point x="459" y="1006"/>
      <point x="337" y="865" type="curve"/>
      <point x="330" y="913"/>
      <point x="320" y="978"/>
      <point x="305" y="1020" type="curve"/>
      <point x="125" y="1020" type="line"/>
      <point x="146" y="951"/>
      <point x="175" y="811"/>
      <point x="175" y="615" type="curve" smooth="yes"/>
      <point x="175" y="0" type="line"/>
      <point x="360" y="0" type="line"/>
      <point x="360" y="660" type="line"/>
      <point x="413" y="780"/>
      <point x="517" y="865"/>
      <point x="615" y="865" type="curve" smooth="yes"/>
      <point x="727" y="865"/>
      <point x="760" y="818"/>
      <point x="760" y="570" type="curve" smooth="yes"/>
      <point x="760" y="0" type="line"/>
      <point x="945" y="0" type="line"/>
    </contour>
  </outline>
</glyph>
<glyph name="LtnSmR" format="2">
  <advance width="890"/>
  <unicode hex="0072"/>
  <guideline x="214" y="500" angle="0"/>
  <anchor x="270" y="0" name="H"/>
  <anchor x="255" y="-100" name="L"/>
  <anchor x="455" y="1100" name="U"/>
  <outline>
    <contour>
      <point x="340" y="0" type="line"/>
      <point x="340" y="580" type="line"/>
      <point x="384" y="716"/>
      <point x="521" y="860"/>
      <point x="605" y="860" type="curve" smooth="yes"/>
      <point x="684" y="860"/>
      <point x="720" y="770"/>
      <point x="720" y="670" type="curve"/>
      <point x="880" y="705" type="line"/>
      <point x="880" y="880"/>
      <point x="817" y="1040"/>
      <point x="650" y="1040" type="curve" smooth="yes"/>
      <point x="559" y="1040"/>
      <point x="422" y="964"/>
      <point x="325" y="825" type="curve"/>
      <point x="318" y="873"/>
      <point x="300" y="978"/>
      <point x="285" y="1020" type="curve"/>
      <point x="105" y="1020" type="line"/>
      <point x="127" y="951"/>
      <point x="155" y="811"/>
      <point x="155" y="615" type="curve" smooth="yes"/>
      <point x="155" y="0" type="line"/>
    </contour>
  </outline>
</glyph>
<glyph name="LtnSmS" format="2">
  <advance width="965"/>
  <unicode hex="0073"/>
  <anchor x="495" y="0" name="H"/>
  <anchor x="495" y="-100" name="L"/>
  <anchor x="495" y="1100" name="U"/>
  <outline>
    <contour>
      <point x="835" y="960" type="line"/>
      <point x="766" y="998"/>
      <point x="660" y="1040"/>
      <point x="515" y="1040" type="curve" smooth="yes"/>
      <point x="211" y="1040"/>
      <point x="130" y="832"/>
      <point x="130" y="740" type="curve" smooth="yes"/>
      <point x="130" y="616"/>
      <point x="182" y="514"/>
      <point x="425" y="455" type="curve" smooth="yes"/>
      <point x="649" y="400"/>
      <point x="700" y="345"/>
      <point x="700" y="270" type="curve" smooth="yes"/>
      <point x="700" y="201"/>
      <point x="617" y="135"/>
      <point x="500" y="135" type="curve" smooth="yes"/>
      <point x="394" y="135"/>
      <point x="250" y="189"/>
      <point x="160" y="270" type="curve"/>
      <point x="110" y="90" type="line"/>
      <point x="189" y="28"/>
      <point x="333" y="-25"/>
      <point x="495" y="-25" type="curve" smooth="yes"/>
      <point x="710" y="-25"/>
      <point x="880" y="115"/>
      <point x="880" y="295" type="curve" smooth="yes"/>
      <point x="880" y="481"/>
      <point x="731" y="559"/>
      <point x="550" y="600" type="curve" smooth="yes"/>
      <point x="340" y="648"/>
      <point x="310" y="680"/>
      <point x="310" y="750" type="curve" smooth="yes"/>
      <point x="310" y="810"/>
      <point x="358" y="880"/>
      <point x="505" y="880" type="curve" smooth="yes"/>
      <point x="629" y="880"/>
      <point x="733" y="824"/>
      <point x="800" y="785" type="curve"/>
    </contour>
  </outline>
</glyph>
<glyph name="LtnSmU" format="2">
  <advance width="1185"/>
  <unicode hex="0075"/>
  <anchor x="589" y="0" name="H"/>
  <anchor x="589" y="-100" name="L"/>
  <anchor x="1192" y="0" name="O"/>
  <anchor x="1185" y="1000" name="R"/>
  <anchor x="589" y="1100" name="U"/>
  <outline>
    <contour>
      <point x="1090" y="0" type="line"/>
      <point x="1048" y="112"/>
      <point x="1025" y="256"/>
      <point x="1025" y="450" type="curve" smooth="yes"/>
      <point x="1025" y="646"/>
      <point x="1025" y="1020"/>
      <point x="1025" y="1020" type="curve"/>
      <point x="820" y="1020" type="line"/>
      <point x="838" y="898"/>
      <point x="840" y="832"/>
      <point x="840" y="700" type="curve" smooth="yes"/>
      <point x="840" y="420" type="line"/>
      <point x="787" y="298"/>
      <point x="628" y="140"/>
      <point x="510" y="140" type="curve" smooth="yes"/>
      <point x="383" y="140"/>
      <point x="340" y="238"/>
      <point x="340" y="465" type="curve" smooth="yes"/>
      <point x="340" y="603"/>
      <point x="340" y="1020"/>
      <point x="340" y="1020" type="curve"/>
      <point x="135" y="1020" type="line"/>
      <point x="153" y="900"/>
      <point x="155" y="827"/>
      <point x="155" y="700" type="curve" smooth="yes"/>
      <point x="155" y="681"/>
      <point x="155" y="424"/>
      <point x="155" y="405" type="curve" smooth="yes"/>
      <point x="155" y="120"/>
      <point x="262" y="-25"/>
      <point x="475" y="-25" type="curve" smooth="yes"/>
      <point x="615" y="-25"/>
      <point x="744" y="53"/>
      <point x="865" y="200" type="curve"/>
      <point x="875" y="125"/>
      <point x="901" y="46"/>
      <point x="920" y="0" type="curve"/>
    </contour>
  </outline>
</glyph>
<glyph name="LtnSmW" format="2">
  <advance width="1550"/>
  <unicode hex="0077"/>
  <anchor x="775" y="-100" name="L"/>
  <anchor x="775" y="1100" name="U"/>
  <outline>
    <contour>
      <point x="700" y="1020" type="line"/>
      <point x="440" y="215" type="line"/>
      <point x="230" y="1020" type="line"/>
      <point x="45" y="1020" type="line"/>
      <point x="92" y="867"/>
      <point x="120" y="771"/>
      <point x="150" y="665" type="curve" smooth="yes"/>
      <point x="335" y="0" type="line"/>
      <point x="525" y="0" type="line"/>
      <point x="775" y="785" type="line"/>
      <point x="1025" y="0" type="line"/>
      <point x="1215" y="0" type="line"/>
      <point x="1400" y="665" type="line" smooth="yes"/>
      <point x="1434" y="785"/>
      <point x="1458" y="868"/>
      <point x="1505" y="1020" type="curve"/>
      <point x="1320" y="1020" type="line"/>
      <point x="1110" y="215" type="line"/>
      <point x="850" y="1020" type="line"/>
    </contour>
  </outline>
</glyph>
<glyph name="LtnSmX" format="2">
  <advance width="1085"/>
  <unicode hex="0078"/>
  <anchor x="900" y="0" name="H"/>
  <anchor x="542" y="-100" name="L"/>
  <anchor x="542" y="1100" name="U"/>
  <outline>
    <contour>
      <point x="805" y="0" type="line"/>
      <point x="1035" y="0" type="line"/>
      <point x="927" y="142"/>
      <point x="902" y="170"/>
      <point x="830" y="270" type="curve" smooth="yes"/>
      <point x="290" y="1020" type="line"/>
      <point x="60" y="1020" type="line"/>
      <point x="168" y="887"/>
      <point x="203" y="843"/>
      <point x="270" y="750" type="curve"/>
    </contour>
    <contour>
      <point x="489" y="616" type="line"/>
      <point x="250" y="270" type="line" smooth="yes"/>
      <point x="189" y="182"/>
      <point x="160" y="143"/>
      <point x="50" y="0" type="curve"/>
      <point x="275" y="0" type="line"/>
      <point x="556" y="404" type="line"/>
    </contour>
    <contour>
      <point x="585" y="405" type="line"/>
      <point x="820" y="750" type="line" smooth="yes"/>
      <point x="883" y="842"/>
      <point x="917" y="886"/>
      <point x="1020" y="1020" type="curve"/>
      <point x="795" y="1020" type="line"/>
      <point x="520" y="615" type="line"/>
    </contour>
  </outline>
</glyph>
<glyph name="LftCurlyBrac" format="2">
  <advance width="1000"/>
  <unicode hex="007B"/>
  <outline>
    <contour>
      <point x="210" y="615" type="curve" smooth="yes"/>
      <point x="210" y="583"/>
      <point x="383" y="486"/>
      <point x="410" y="450" type="curve" smooth="yes"/>
      <point x="434" y="418"/>
      <point x="424" y="-205"/>
      <point x="495" y="-285" type="curve" smooth="yes"/>
      <point x="535" y="-330"/>
      <point x="696" y="-383"/>
      <point x="800" y="-410" type="curve"/>
      <point x="840" y="-270" type="line"/>
      <point x="773" y="-247"/>
      <point x="650" y="-198"/>
      <point x="630" y="-170" type="curve" smooth="yes"/>
      <point x="597" y="-123"/>
      <point x="610" y="447"/>
      <point x="590" y="485" type="curve" smooth="yes"/>
      <point x="571" y="521"/>
      <point x="434" y="593"/>
      <point x="430" y="615" type="curve"/>
      <point x="434" y="637"/>
      <point x="571" y="709"/>
      <point x="590" y="745" type="curve" smooth="yes"/>
      <point x="610" y="783"/>
      <point x="597" y="1353"/>
      <point x="630" y="1400" type="curve" smooth="yes"/>
      <point x="650" y="1428"/>
      <point x="773" y="1477"/>
      <point x="840" y="1500" type="curve"/>
      <point x="800" y="1640" type="line"/>
      <point x="696" y="1613"/>
      <point x="535" y="1560"/>
      <point x="495" y="1515" type="curve" smooth="yes"/>
      <point x="424" y="1435"/>
      <point x="434" y="812"/>
      <point x="410" y="780" type="curve" smooth="yes"/>
      <point x="383" y="744"/>
      <point x="210" y="647"/>
    </contour>
  </outline>
</glyph>
<glyph name="CombAcute" format="2">
  <unicode hex="0301"/>
  <anchor x="-570" y="1635" name="U"/>
  <anchor x="-570" y="1100" name="_U"/>
  <outline>
    <contour>
      <point x="-400" y="1600" type="line"/>
      <point x="-750" y="1170" type="line"/>
      <point x="-590" y="1170" type="line"/>
      <point x="-170" y="1600" type="line"/>
    </contour>
  </outline>
</glyph>
<glyph name="CombRingAbv" format="2">
  <unicode hex="030A"/>
  <anchor x="-570" y="1635" name="U"/>
  <anchor x="-572" y="1100" name="_U"/>
  <outline>
    <contour>
      <point x="-470" y="1385" type="curve" smooth="yes"/>
      <point x="-470" y="1325"/>
      <point x="-510" y="1285"/>
      <point x="-570" y="1285" type="curve" smooth="yes"/>
      <point x="-630" y="1285"/>
      <point x="-670" y="1325"/>
      <point x="-670" y="1385" type="curve" smooth="yes"/>
      <point x="-670" y="1445"/>
      <point x="-630" y="1485"/>
      <point x="-570" y="1485" type="curve" smooth="yes"/>
      <point x="-510" y="1485"/>
      <point x="-470" y="1445"/>
    </contour>
    <contour>
      <point x="-785" y="1385" type="curve" smooth="yes"/>
      <point x="-785" y="1265"/>
      <point x="-690" y="1170"/>
      <point x="-570" y="1170" type="curve" smooth="yes"/>
      <point x="-450" y="1170"/>
      <point x="-355" y="1265"/>
      <point x="-355" y="1385" type="curve" smooth="yes"/>
      <point x="-355" y="1505"/>
      <point x="-450" y="1600"/>
      <point x="-570" y="1600" type="curve" smooth="yes"/>
      <point x="-690" y="1600"/>
      <point x="-785" y="1505"/>
    </contour>
  </outline>
</glyph>
